<?xml version="1.0" standalone="no"?>
<!DOCTYPE svg PUBLIC "-//W3C//DTD SVG 20010904//EN"
 "http://www.w3.org/TR/2001/REC-SVG-20010904/DTD/svg10.dtd">
<svg version="1.0" xmlns="http://www.w3.org/2000/svg"
 width="500.000000pt" height="500.000000pt" viewBox="0 0 500.000000 500.000000"
 preserveAspectRatio="xMidYMid meet">
<metadata>
Created by potrace 1.14, written by Peter Selinger 2001-2017
</metadata>
<g transform="translate(0.000000,500.000000) scale(0.100000,-0.100000)"
fill="#000000" stroke="none">
<path d="M2427 4060 c-82 -21 -150 -40 -152 -42 -3 -2 2 -45 11 -94 8 -49 17
-98 18 -109 4 -21 25 -163 30 -202 6 -43 -19 -20 -29 27 -1 3 -6 23 -13 44 -6
22 -9 43 -6 47 2 4 0 10 -6 14 -5 3 -10 17 -10 29 0 27 -29 99 -30 76 -1 -8
-3 -35 -5 -60 -4 -55 -12 -217 -21 -410 -3 -80 -8 -154 -9 -165 -2 -11 -4 -53
-4 -93 -1 -66 -4 -75 -27 -97 -15 -14 -35 -25 -44 -25 -16 0 -747 502 -791
542 -8 8 -22 17 -30 21 -8 4 -23 14 -35 22 -19 14 -23 14 -45 -4 l-24 -19 -1
-1416 c-1 -1497 -3 -1435 43 -1438 10 -1 120 71 244 160 124 89 230 162 236
162 5 0 25 -15 45 -33 20 -17 69 -61 109 -97 40 -36 91 -83 114 -105 22 -22
44 -41 48 -42 9 -3 69 -57 133 -120 24 -24 46 -43 50 -43 4 0 22 -15 39 -32
18 -18 61 -58 95 -88 35 -30 77 -68 94 -84 17 -15 32 -23 34 -17 2 5 -4 47
-12 93 -15 78 -40 224 -52 293 -6 41 -23 135 -29 165 -3 14 -9 50 -15 80 -5
30 -12 69 -15 85 -13 78 -56 323 -59 343 -2 12 -1 20 2 18 2 -3 18 4 33 15 16
11 29 17 29 12 0 -4 5 0 11 10 5 9 14 17 19 17 6 0 19 9 30 20 58 58 77 -17
40 -165 l-21 -80 30 -25 c16 -14 39 -32 51 -40 12 -8 31 -23 42 -32 17 -15 24
-16 37 -5 9 6 22 17 29 22 7 6 18 15 25 21 7 6 25 19 40 29 26 16 28 23 24 59
-3 23 -8 52 -12 66 -19 72 -17 130 10 240 1 3 5 25 9 50 4 25 14 55 21 66 12
18 216 158 234 160 3 0 20 6 36 14 96 42 115 50 119 50 3 0 17 5 33 12 15 6
30 12 33 13 3 0 14 6 25 12 11 6 22 11 25 11 3 0 18 5 33 11 33 13 57 14 57 4
0 -5 -7 -28 -16 -53 -9 -25 -17 -52 -19 -60 -17 -84 -37 -127 -72 -150 -20
-14 -41 -30 -47 -35 -6 -6 -36 -28 -66 -50 -30 -22 -62 -45 -70 -52 -24 -19
-86 -66 -116 -88 -46 -34 -51 -42 -63 -107 -6 -35 -24 -137 -40 -228 -17 -91
-33 -181 -36 -200 -14 -78 -45 -257 -49 -280 -3 -14 -12 -65 -21 -115 -8 -49
-17 -101 -20 -115 -2 -14 -9 -46 -13 -73 -5 -26 -6 -47 -2 -47 4 0 22 15 41
32 35 33 109 99 202 181 26 23 67 60 91 82 24 22 72 65 107 96 35 31 80 72
101 90 20 19 57 52 82 74 25 22 71 63 102 92 l56 52 3 133 c2 103 6 931 5
1057 0 20 -3 22 -12 13 -19 -19 -30 -14 -18 8 6 11 8 20 4 20 -3 0 -1 7 6 15
6 8 10 29 7 47 -33 228 -40 261 -74 309 -18 27 -33 53 -33 59 0 5 -4 10 -8 10
-5 0 -15 12 -23 28 -8 15 -22 36 -31 46 -10 11 -18 26 -18 33 0 7 -4 13 -9 13
-5 0 -12 8 -15 18 -4 10 -23 28 -44 39 -20 11 -71 39 -112 62 -41 23 -85 47
-97 53 -20 10 -23 19 -24 77 0 36 -2 73 -3 81 -3 15 -10 143 -22 415 -4 77 -8
147 -10 155 -1 8 -3 34 -3 58 -1 23 -5 42 -10 42 -7 0 -21 -47 -22 -75 0 -2
-5 -19 -10 -37 -6 -18 -12 -41 -14 -51 -8 -36 -29 -87 -36 -87 -8 0 -7 10 11
125 5 39 13 86 15 105 3 19 10 57 15 83 11 53 13 124 4 115 -3 -4 -20 -2 -37
4 -66 20 -263 68 -277 67 -8 0 -82 -18 -163 -39z m-607 -1344 c0 -2 -8 -10
-17 -17 -16 -13 -17 -12 -4 4 13 16 21 21 21 13z m-106 -454 c3 -5 -1 -9 -9
-9 -8 0 -12 4 -9 9 3 4 7 8 9 8 2 0 6 -4 9 -8z"/>
</g>
</svg>
